<?xml version="1.0" standalone="no"?>
<!DOCTYPE svg PUBLIC "-//W3C//DTD SVG 20010904//EN"
 "http://www.w3.org/TR/2001/REC-SVG-20010904/DTD/svg10.dtd">
<svg version="1.0" xmlns="http://www.w3.org/2000/svg"
 width="267.000000pt" height="200.000000pt" viewBox="0 0 267.000000 200.000000"
 preserveAspectRatio="xMidYMid meet">

<g transform="translate(0.000000,200.000000) scale(0.100000,-0.100000)"
fill="#000000" stroke="none">
<path d="M1136 1754 c-135 -30 -140 -39 -19 -40 125 0 202 -18 312 -70 99 -46
184 -108 257 -187 121 -129 165 -247 190 -512 8 -84 25 -122 60 -131 29 -7 93
1 106 14 4 4 13 45 18 90 12 90 1 210 -26 303 -22 74 -85 192 -139 261 -92
117 -255 224 -400 263 -89 23 -274 28 -359 9z"/>
</g>
</svg>
